# AST/ASF file generated using VICON BodyLanguage
# -----------------------------------------------
:version 1.10
:name VICON
:units
  mass 1.0
  length 0.45
  angle deg
:documentation
   .ast/.asf automatically generated from VICON data using
   VICON BodyBuilder and BodyLanguage model FoxedUp or BRILLIANT.MOD
:root
   order TX TY TZ RX RY RZ
   axis XYZ
   position 0 0 0  
   orientation 0 0 0 
:bonedata
  begin
     id 1 
     name lhipjoint
     direction 0.78388 -0.462562 0.414208 
     length 3.01181 
     axis 0 0 0  XYZ
  end
  begin
     id 2 
     name lfemur
     direction 0.34202 -0.939693 0  
     length 6.04673  
     axis 0 0 20  XYZ
    dof rx ry rz
    limits (-160.0 20.0)
           (-70.0 70.0)
           (-60.0 70.0)
  end
  begin
     id 3 
     name ltibia
     direction 0.34202 -0.939693 0   
     length 7.211   
     axis 0 0 20   XYZ
    dof rx
    limits (-10.0 170.0)
  end
  begin
     id 4 
     name lfoot
     direction 0.121887 -0.334882 0.934344   
     length 2.13567   
     axis -90 7.62852e-016 20   XYZ
    dof rx rz
    limits (-45.0 90.0)
           (-70.0 20.0)
  end
  begin
     id 5 
     name ltoes
     direction 1.53555e-011 -4.2179e-011 1   
     length 1.05957   
     axis -90 7.62852e-016 20   XYZ
    dof rx
    limits (-90.0 20.0)
  end
  begin
     id 6 
     name rhipjoint
     direction -0.769387 -0.475875 0.426129   
     length 2.92756  
     axis 0 0 0  XYZ 
  end
  begin
     id 7 
     name rfemur
     direction -0.34202 -0.939693 0   
     length 6.35468   
     axis 0 0 -20   XYZ
    dof rx ry rz
    limits (-160.0 20.0)
           (-70.0 70.0)
           (-70.0 60.0)
  end
  begin
     id 8 
     name rtibia
     direction -0.34202 -0.939693 0   
     length 7.37886   
     axis 0 0 -20   XYZ
    dof rx
    limits (-10.0 170.0)
 end
 begin
     id 9 
     name rfoot
     direction -0.101763 -0.279592 0.954711   
     length 2.21478  
     axis -90 -7.62852e-016 -20   XYZ
    dof rx rz
    limits (-45.0 90.0)
           (-20.0 70.0)
  end
  begin
     id 10 
     name rtoes
     direction -1.53494e-011 -4.21851e-011 1   
     length 1.10506   
     axis -90 -7.62852e-016 -20   XYZ
    dof rx
    limits (-90.0 20.0)
  end
  begin
     id 11 
     name lowerback
     direction 0.00747405 0.999267 0.0375481   
     length 2.13259   
     axis 0 0 0   XYZ
    dof rx ry rz
    limits (-20.0 45.0)
           (-30.0 30.0)
           (-30.0 30.0)
  end
  begin
     id 12 
     name upperback
     direction 0.00661626 0.996177 0.0871029   
     length 2.10528   
     axis 0 0 0   XYZ
    dof rx ry rz
    limits (-20.0 45.0)
           (-30.0 30.0)
           (-30.0 30.0)
  end
  begin
     id 13 
     name thorax
     direction 0.00320659 0.997679 0.0680167   
     length 2.11338   
     axis 0 0 0   XYZ
    dof rx ry rz
    limits (-20.0 45.0)
           (-30.0 30.0)
           (-30.0 30.0)
  end
  begin
     id 14 
     name lowerneck
     direction 0.0374841 0.973033 0.227602   
     length 1.42765   
     axis 0 0 0   XYZ
    dof rx ry rz
    limits (-20.0 45.0)
           (-30.0 30.0)
           (-30.0 30.0)
  end
  begin
     id 15 
     name upperneck
     direction 0.00481585 0.989155 -0.146795   
     length 1.47593   
     axis 0 0 0   XYZ
    dof rx ry rz
    limits (-20.0 45.0)
           (-30.0 30.0)
           (-30.0 30.0)
  end
  begin
     id 16
     name head
     direction -0.00292522 0.997206 -0.0746423  
     length 1.48116  
     axis 0 0 0   XYZ
    dof rx ry rz
    limits (-20.0 45.0)
           (-30.0 30.0)
           (-30.0 30.0)
  end
  begin
     id 17 
     name lclavicle
     direction 0.951444 0.305606 0.0368784  
     length 3.01855  
     axis 0 0 0   XYZ
    dof ry rz
    limits (-20.0 10.0)
           (0.0 20.0)
  end
  begin
     id 18 
     name lhumerus
     direction 1 -4.48977e-011 2.61664e-027   
     length 5.52731   
     axis 180 -30 -90   XYZ
    dof rx ry rz
    limits (-60.0 90.0)
           (-90.0 90.0)
           (-90.0 90.0)
  end
  begin
     id 19
     name lradius
     direction 1 -4.48944e-011 8.22157e-027   
     length 3.11059   
     axis 180 -30 -90   XYZ
    dof rx
    limits (-10.0 170.0)
  end
  begin
     id 20
     name lwrist
     direction 1 -4.48976e-011 1.5779e-026   
     length 1.5553   
     axis -1.15221e-014 90 90   XYZ
    dof ry
    limits (-180.0 0.0)
 end
  begin
     id 21 
     name lhand
     direction 1 -4.49025e-011 3.1558e-026   
     length 0.419626   
     axis -2.01367e-014 90 90   XYZ
    dof rx rz
    limits (-90.0 90.0)
           (-45.0 45.0)
  end
  begin
     id 22 
     name lfingers
     direction 1 -4.4904e-011 6.31161e-026   
     length 0.338313   
     axis -4.02734e-014 90 90   XYZ
    dof rx
    limits (0.0 90.0)
  end
  begin
     id 23
     name lthumb
     direction 0.707107 -6.35004e-011 0.707107   
     length 0.485752   
     axis -90 45 2.85299e-015   XYZ
    dof rx rz
    limits (-45.0 45.0)
           (-45.0 45.0)
  end
  begin
     id 24 
     name rclavicle
     direction -0.968876 0.223791 0.105816   
     length 3.04177  
     axis 0 0 0   XYZ 
    dof ry rz
    limits (-10.0 20.0)
           (-20.0 0.0)
  end
  begin
     id 25 
     name rhumerus
     direction -1 -4.48962e-011 -1.01384e-027  
     length 5.25396   
     axis 180 30 90   XYZ
    dof rx ry rz
    limits (-90.0 60.0)
           (-90.0 90.0)
           (-90.0 90.0)
  end
  begin
     id 26 
     name rradius
     direction -1 -4.48955e-011 8.88542e-027   
     length 3.10567   
     axis 180 30 90   XYZ
    dof rx
    limits (-10.0 170.0)
  end
  begin
     id 27 
     name rwrist
     direction -1 -4.48994e-011 1.5779e-026   
     length 1.55283   
     axis -1.15221e-014 -90 -90   XYZ
    dof ry
    limits (-180.0 0.0)
  end
  begin
     id 28
     name rhand
     direction -1 -4.48891e-011 3.1558e-026   
     length 0.498676   
     axis -2.01367e-014 -90 -90   XYZ
    dof rx rz
    limits (-90.0 90.0)
           (-45.0 45.0)
  end
  begin
     id 29
     name rfingers
     direction -1 -4.48972e-011 6.31161e-026   
     length 0.402045   
     axis -4.02734e-014 -90 -90   XYZ
    dof rx
    limits (0.0 90.0)
  end
  begin
     id 30
     name rthumb
     direction -0.707107 -6.34849e-011 0.707107   
     length 0.577259   
     axis -90 -45 -2.85299e-015   XYZ
    dof rx rz
    limits (-45.0 45.0)
           (-45.0 45.0)
  end
:hierarchy
  begin
    root lhipjoint rhipjoint lowerback
    lhipjoint lfemur
    lfemur ltibia
    ltibia lfoot
    lfoot ltoes
    rhipjoint rfemur
    rfemur rtibia
    rtibia rfoot
    rfoot rtoes
    lowerback upperback
    upperback thorax
    thorax lowerneck lclavicle rclavicle
    lowerneck upperneck
    upperneck head
    lclavicle lhumerus
    lhumerus lradius
    lradius lwrist
    lwrist lhand lthumb
    lhand lfingers
    rclavicle rhumerus
    rhumerus rradius
    rradius rwrist
    rwrist rhand rthumb
    rhand rfingers
  end

#!OML:ASF H:\Pregnant\Project 1\Capture day 1\Session 1\femalepreg.ASF
:FULLY-SPECIFIED
:DEGREES
121
root -7.32078 15.4607 22.3788 -161.924 3.54851 -182.056
lowerback -16.2315 1.35213 -8.53337
upperback -0.681086 4.24916 -4.41235
thorax 8.15524 2.01986 1.05291
lowerneck -17.1978 3.406 0.906939
upperneck 31.7151 2.60923 0.428544
head 13.6044 0.61886 0.278533
rclavicle 9.74045e-015 -3.49861e-014
rhumerus -13.2304 21.9529 -95.2036
rradius 41.7642
rwrist -6.26578
rhand -17.1095 -14.9426
rfingers 7.12502
rthumb 9.12969 -44.7249
lclavicle 9.74045e-015 -3.49861e-014
lhumerus -21.3145 -10.3421 75.0559
lradius 27.4385
lwrist 41.6188
lhand -35.0752 -3.28873
lfingers 7.12502
lthumb -8.21737 26.5315
rfemur -58.4746 15.9773 15.6397
rtibia 44.9906
rfoot -9.04549 -13.1156
rtoes -11.3137
lfemur -26.0361 -9.92506 -26.287
ltibia 22.0742
lfoot -15.1097 -0.518883
ltoes 1.12747
122
root -7.33424 15.4695 22.2918 -161.893 3.38151 -182.148
lowerback -16.2133 1.32569 -8.45371
upperback -0.661864 4.19431 -4.39788
thorax 8.17391 1.99374 1.01183
lowerneck -17.0091 3.53236 0.976405
upperneck 31.5661 2.94543 -0.0319834
head 13.5107 0.715605 0.138247
rclavicle 1.76918e-014 2.06736e-014
rhumerus -13.2706 21.7741 -95.3973
rradius 42.6329
rwrist -6.38737
rhand -16.7272 -14.615
rfingers 7.12502
rthumb 9.49852 -44.3809
lclavicle 1.76918e-014 2.06736e-014
lhumerus -21.5533 -10.4158 75.282
lradius 27.6309
lwrist 41.9401
lhand -34.5848 -3.18279
lfingers 7.12502
lthumb -7.74405 26.6554
rfemur -58.7413 16.2703 15.1919
rtibia 43.5593
rfoot -8.77343 -12.6371
rtoes -11.0851
lfemur -25.2148 -9.90141 -26.5159
ltibia 21.1493
lfoot -14.9264 -0.828903
ltoes 1.68997
123
root -7.34758 15.4775 22.204 -161.867 3.20656 -182.251
lowerback -16.1905 1.30242 -8.37349
upperback -0.646743 4.14276 -4.38303
thorax 8.18509 1.96972 0.971308
lowerneck -16.8209 3.66695 1.051
upperneck 31.4281 3.29016 -0.503522
head 13.4253 0.814608 -0.00567474
rclavicle 2.68359e-014 4.77083e-015
rhumerus -13.3673 21.6081 -95.5738
rradius 43.4926
rwrist -6.38221
rhand -16.3149 -14.2395
rfingers 7.12502
rthumb 9.89639 -43.9869
lclavicle 2.68359e-014 4.77083e-015
lhumerus -21.7978 -10.5148 75.5331
lradius 27.8036
lwrist 42.1381
lhand -34.0557 -3.11009
lfingers 7.12502
lthumb -7.23336 26.7463
rfemur -59.0014 16.5893 14.6851
rtibia 42.1616
rfoot -8.48828 -12.2164
rtoes -10.8746
lfemur -24.3573 -9.85698 -26.7598
ltibia 20.1701
lfoot -14.7223 -1.17336
ltoes 2.26769
124
root -7.36091 15.4845 22.1153 -161.85 3.03025 -182.367
lowerback -16.1615 1.28428 -8.29599
upperback -0.638065 4.09727 -4.36672
thorax 8.18487 1.94917 0.934813
lowerneck -16.5939 3.79563 1.08127
upperneck 31.2769 3.62417 -0.942685
head 13.3268 0.908048 -0.131398
rclavicle -4.33351e-014 -9.54166e-015
rhumerus -13.5198 21.4555 -95.7279
rradius 44.3366
rwrist -6.26245
rhand -15.8149 -13.8285
rfingers 7.12502
rthumb 10.3788 -43.5524
lclavicle -4.33351e-014 -9.54166e-015
lhumerus -22.0605 -10.6371 75.8129
lradius 27.9677
lwrist 42.2188
lhand -33.544 -3.04961
lfingers 7.12502
lthumb -6.73936 26.8231
rfemur -59.2565 16.9375 14.1169
rtibia 40.8108
rfoot -8.2301 -11.8723
rtoes -10.6719
lfemur -23.4529 -9.7866 -27.0224
ltibia 19.1271
lfoot -14.489 -1.54382
ltoes 2.85395
125
root -7.37493 15.4903 22.0263 -161.83 2.86225 -182.491
lowerback -16.1309 1.27774 -8.20784
upperback -0.63243 4.06527 -4.35445
thorax 8.18038 1.93593 0.890925
lowerneck -16.378 3.91474 1.06307
upperneck 31.1485 3.94126 -1.34736
head 13.2405 0.991967 -0.238006
rclavicle -2.46493e-014 -2.70347e-014
rhumerus -13.6962 21.2924 -95.8483
rradius 45.1439
rwrist -6.02815
rhand -15.2405 -13.3507
rfingers 7.12502
rthumb 10.9328 -43.0461
lclavicle -2.46493e-014 -2.70347e-014
lhumerus -22.3139 -10.7555 76.1131
lradius 28.1099
lwrist 42.1683
lhand -33.06 -3.02071
lfingers 7.12502
lthumb -6.27216 26.8664
rfemur -59.5267 17.3058 13.4911
rtibia 39.5176
rfoot -7.93455 -11.5997
rtoes -10.7463
lfemur -22.517 -9.68978 -27.302
ltibia 18.0203
lfoot -14.2225 -1.94123
ltoes 3.45017
126
root -7.38937 15.4947 21.9353 -161.847 2.70763 -182.624
lowerback -16.0833 1.28413 -8.11807
upperback -0.614011 4.04755 -4.34087
thorax 8.17929 1.92856 0.850049
lowerneck -16.1695 4.02098 0.990374
upperneck 31.0401 4.23676 -1.71175
head 13.1631 1.06438 -0.323156
rclavicle 7.7526e-015 1.24042e-013
rhumerus -13.8869 21.1364 -95.9328
rradius 45.9037
rwrist -5.70273
rhand -14.6097 -12.8063
rfingers 7.12502
rthumb 11.5412 -42.4686
lclavicle 7.7526e-015 1.24042e-013
lhumerus -22.5659 -10.8782 76.4364
lradius 28.2476
lwrist 42.0202
lhand -32.5838 -3.02437
lfingers 7.12502
lthumb -5.81238 26.8759
rfemur -59.7661 17.7121 12.8197
rtibia 38.2931
rfoot -7.69228 -11.4352
rtoes -10.8823
lfemur -21.4961 -9.56435 -27.6032
ltibia 16.8472
lfoot -13.9328 -2.35377
ltoes 4.04569
127
root -7.40474 15.4972 21.8431 -161.879 2.57701 -182.763
lowerback -16.0288 1.30685 -8.01867
upperback -0.586887 4.04934 -4.33209
thorax 8.18343 1.93039 0.802739
lowerneck -15.9877 4.11022 0.864588
upperneck 30.9594 4.50396 -2.03176
head 13.1013 1.12289 -0.386406
rclavicle 2.92213e-014 -1.27222e-014
rhumerus -14.0839 20.9683 -95.9837
rradius 46.6181
rwrist -5.30662
rhand -13.9443 -12.195
rfingers 7.12502
rthumb 12.1829 -41.8203
lclavicle 2.92213e-014 -1.27222e-014
lhumerus -22.8103 -11.0154 76.7807
lradius 28.3886
lwrist 41.7857
lhand -32.1153 -3.0904
lfingers 7.12502
lthumb -5.36002 26.8218
rfemur -60.0052 18.1392 12.1131
rtibia 37.1462
rfoot -7.5678 -11.3713
rtoes -10.9215
lfemur -20.4162 -9.41163 -27.9223
ltibia 15.6048
lfoot -13.6115 -2.77692
ltoes 4.64881
128
root -7.42059 15.4977 21.7498 -161.928 2.46381 -182.911
lowerback -15.9686 1.3411 -7.92009
upperback -0.548818 4.06598 -4.32379
thorax 8.19538 1.93844 0.758421
lowerneck -15.8504 4.18372 0.697535
upperneck 30.9173 4.74424 -2.31423
head 13.0632 1.16794 -0.432104
rclavicle 3.49861e-014 -2.70347e-014
rhumerus -14.2871 20.7971 -96.0001
rradius 47.2864
rwrist -4.8859
rhand -13.2749 -11.5512
rfingers 7.12502
rthumb 12.8282 -41.137
lclavicle 3.49861e-014 -2.70347e-014
lhumerus -23.0425 -11.1502 77.1452
lradius 28.5288
lwrist 41.4728
lhand -31.6774 -3.19667
lfingers 7.12502
lthumb -4.93728 26.7258
rfemur -60.2447 18.583 11.3793
rtibia 36.0863
rfoot -7.50421 -11.4198
rtoes -10.9846
lfemur -19.2697 -9.22596 -28.2583
ltibia 14.2824
lfoot -13.2576 -3.21771
ltoes 5.19039
129
root -7.43655 15.4962 21.6556 -161.985 2.35571 -183.071
lowerback -15.8997 1.38191 -7.82734
upperback -0.505049 4.09268 -4.32142
thorax 8.20823 1.95122 0.712854
lowerneck -15.7553 4.2445 0.510602
upperneck 30.902 4.95761 -2.55617
head 13.0435 1.20334 -0.46256
rclavicle 3.77691e-015 -2.22639e-014
rhumerus -14.4959 20.6132 -95.9918
rradius 47.9055
rwrist -4.47814
rhand -12.6329 -10.9043
rfingers 7.12502
rthumb 13.4471 -40.4502
lclavicle 3.77691e-015 -2.22639e-014
lhumerus -23.2626 -11.2915 77.5239
lradius 28.6642
lwrist 41.0948
lhand -31.2981 -3.33034
lfingers 7.12502
lthumb -4.57096 26.6003
rfemur -60.4984 19.0377 10.6129
rtibia 35.1232
rfoot -7.48296 -11.5986
rtoes -11.0687
lfemur -18.0641 -9.01361 -28.6099
ltibia 12.8705
lfoot -12.8657 -3.68783
ltoes 5.69082
130
root -7.4523 15.4929 21.5613 -162.036 2.24312 -183.247
lowerback -15.8286 1.42734 -7.74132
upperback -0.460994 4.12947 -4.33267
thorax 8.22042 1.96963 0.658532
lowerneck -15.6881 4.28867 0.322208
upperneck 30.8956 5.13526 -2.75772
head 13.0316 1.22863 -0.482296
rclavicle 4.19436e-014 -3.10104e-014
rhumerus -14.7202 20.4045 -95.9718
rradius 48.4842
rwrist -4.11579
rhand -12.0391 -10.3022
rfingers 7.12502
rthumb 14.0193 -39.8095
lclavicle 4.19436e-014 -3.10104e-014
lhumerus -23.4681 -11.4593 77.909
lradius 28.7956
lwrist 40.6791
lhand -30.9983 -3.44956
lfingers 7.12502
lthumb -4.28152 26.4871
rfemur -60.7836 19.49 9.81543
rtibia 34.268
rfoot -7.49004 -11.9176
rtoes -11.1932
lfemur -16.7954 -8.77557 -28.9751
ltibia 11.3302
lfoot -12.4153 -4.20238
ltoes 6.13498
131
root -7.46751 15.4878 21.4673 -162.073 2.11354 -183.446
lowerback -15.7516 1.47394 -7.66685
upperback -0.420976 4.17344 -4.36333
thorax 8.22552 1.99301 0.591133
lowerneck -15.6848 4.32627 0.180076
upperneck 30.9291 5.28886 -2.95138
head 13.0513 1.24834 -0.509977
rclavicle -2.20651e-014 3.18055e-015
rhumerus -14.9651 20.1532 -95.9478
rradius 49.0244
rwrist -3.81396
rhand -11.5112 -9.78888
rfingers 7.12502
rthumb 14.528 -39.2602
lclavicle -2.20651e-014 3.18055e-015
lhumerus -23.6569 -11.6698 78.2968
lradius 28.9184
lwrist 40.245
lhand -30.793 -3.60333
lfingers 7.12502
lthumb -4.08321 26.3373
rfemur -61.1114 19.9374 8.97383
rtibia 33.5249
rfoot -7.52471 -12.4014
rtoes -11.3506
lfemur -15.4731 -8.86672 -29.2579
ltibia 9.63152
lfoot -11.8354 -4.42695
ltoes 6.55088
132
root -7.48171 15.4815 21.3732 -162.102 1.95595 -183.669
lowerback -15.6687 1.51632 -7.61245
upperback -0.385108 4.21842 -4.40865
thorax 8.2229 2.01788 0.519114
lowerneck -15.7066 4.34961 0.0511453
upperneck 30.9783 5.40932 -3.11342
head 13.0816 1.25893 -0.532567
rclavicle -6.14245e-014 7.15625e-015
rhumerus -15.2285 19.8884 -95.9176
rradius 49.5128
rwrist -3.60436
rhand -11.0701 -9.40071
rfingers 7.12502
rthumb 14.9529 -38.8409
lclavicle -6.14245e-014 7.15625e-015
lhumerus -23.8366 -11.9173 78.6915
lradius 29.0273
lwrist 39.8043
lhand -30.6856 -3.77464
lfingers 7.12502
lthumb -3.97954 26.1679
rfemur -61.4666 20.3788 8.0946
rtibia 32.8989
rfoot -7.57484 -13.0695
rtoes -11.6162
lfemur -14.0135 -8.98958 -29.5611
ltibia 7.66944
lfoot -11.1281 -4.68017
ltoes 6.98835
133
root -7.49636 15.4733 21.281 -162.071 1.79847 -183.906
lowerback -15.6128 1.56646 -7.54559
upperback -0.369716 4.27889 -4.47744
thorax 8.21538 2.05341 0.419382
lowerneck -15.7583 4.35883 -0.049894
upperneck 31.043 5.49875 -3.26062
head 13.1248 1.26092 -0.558657
rclavicle 2.88238e-014 -1.03368e-014
rhumerus -15.5007 19.5854 -95.8794
rradius 49.9442
rwrist -3.47877
rhand -10.708 -9.13274
rfingers 7.12502
rthumb 15.3018 -38.5467
lclavicle 2.88238e-014 -1.03368e-014
lhumerus -23.9968 -12.2105 79.0905
lradius 29.1184
lwrist 39.3815
lhand -30.643 -3.97587
lfingers 7.12502
lthumb -3.93842 25.9675
rfemur -61.9006 20.7417 7.23387
rtibia 32.386
rfoot -7.6411 -13.8168
rtoes -12.001
lfemur -12.3284 -9.12936 -29.8889
ltibia 5.16211
lfoot -10.1522 -4.97405
ltoes 7.42326
134
root -7.5107 15.4637 21.188 -162.035 1.63584 -184.151
lowerback -15.5567 1.62329 -7.47318
upperback -0.36433 4.3502 -4.56209
thorax 8.19841 2.09627 0.30184
lowerneck -15.7701 4.36234 -0.0684846
upperneck 31.0848 5.56498 -3.44132
head 13.1537 1.25948 -0.61598
rclavicle 1.09332e-014 -6.75868e-014
rhumerus -15.7864 19.2818 -95.8418
rradius 50.2863
rwrist -3.46774
rhand -10.4476 -8.99094
rfingers 7.12502
rthumb 15.5526 -38.3855
lclavicle 1.09332e-014 -6.75868e-014
lhumerus -24.168 -12.5432 79.493
lradius 29.1978
lwrist 39.0072
lhand -30.6862 -4.14723
lfingers 7.12502
lthumb -3.98008 25.7953
rfemur -62.327 21.0493 6.42802
rtibia 31.9839
rfoot -7.74394 -14.659
rtoes -12.4746
lfemur -9.18842 -9.28094 -30.2784
ltibia -2.06736e-014
lfoot -7.96427 -5.4338
ltoes 7.86239
